<svg xmlns="http://www.w3.org/2000/svg" xmlns:xlink="http://www.w3.org/1999/xlink" viewBox="0,0,256,256" width="30px" height="30px" fill-rule="nonzero"><g fill="#ffffff" fill-rule="nonzero" stroke="none" stroke-width="1" stroke-linecap="butt" stroke-linejoin="miter" stroke-miterlimit="10" stroke-dasharray="" stroke-dashoffset="0" font-family="none" font-weight="none" font-size="none" text-anchor="none" style="mix-blend-mode: normal"><g transform="scale(8.53333,8.53333)"><path d="M21.264,13.5c1.376,0.397 2.886,0.363 3.979,0.249c0.77,-0.08 1.312,0.708 1.006,1.419c-1.214,2.822 -3.699,4.557 -7.05,4.802c-0.383,0.891 -0.893,1.721 -1.515,2.465c-0.621,0.743 -1.348,1.391 -2.156,1.925c-0.808,0.533 -1.69,0.945 -2.616,1.223c-0.927,0.276 -1.889,0.417 -2.857,0.417l2.992,-9.535c3.075,-9.801 4.652,-10.465 11.945,-10.465h3.652c0.694,0 1.198,0.699 0.945,1.346c-1.182,3.032 -3.941,5.302 -8.325,6.154zM10.159,18.989c-0.035,0.001 -0.069,0.01 -0.103,0.01c-1.21,0 -2.301,-0.731 -2.764,-1.852c-0.463,-1.121 -0.207,-2.411 0.649,-3.269c0.855,-0.858 2.142,-1.115 3.26,-0.65c0.247,0.103 0.472,0.241 0.677,0.399c0.985,-2.855 1.927,-4.892 3.07,-6.332c-0.349,-0.197 -0.705,-0.38 -1.076,-0.535c-1.21,-0.503 -2.506,-0.761 -3.816,-0.761c-4.033,0 -7.669,2.436 -9.213,6.173c-1.543,3.737 -0.69,8.038 2.162,10.898c1.416,1.42 3.188,2.344 5.068,2.726c0.014,-0.133 0.034,-0.266 0.075,-0.396z"></path></g></g></svg>